<svg xmlns="http://www.w3.org/2000/svg" viewBox="-34 -16 64 32"><style>@keyframes pf-wag{from{transform:rotate(-16deg)}to{transform:rotate(16deg)}}
@keyframes pf-flap{0%,100%{transform:scaleY(1)}50%{transform:scaleY(.72)}}
@keyframes pf-paddle{from{transform:rotate(-22deg)}to{transform:rotate(22deg)}}
@keyframes pf-fin-stroke{from{transform:rotate(-7deg) scaleY(.88)}to{transform:rotate(8deg) scaleY(1.06)}}</style><defs><linearGradient id="f10_2" x1="0%" y1="0%" x2="0%" y2="100%"><stop offset="0%" stop-color="#fff4dc" /><stop offset="30%" stop-color="#87a17a" /><stop offset="75%" stop-color="#87a17a" /><stop offset="100%" stop-color="#264d49" /></linearGradient></defs><g transform="scale(1 -1)"><g style="transform-box:fill-box;transform-origin:center;animation:pf-paddle 2.8499999999999996s ease-in-out infinite alternate;"><path d="M-4 4 Q-12 8 -12 12 Q-5 15 -2 9 L-8 9 Q-5 7 -3 6Z" fill="#87a17a" /><path d="M6 4 Q10 7 6 11 L3 12 M6 11 L6 14 M6 11 L9 13" fill="none" stroke="#87a17a" stroke-width="1.6" stroke-linecap="round" /></g></g><g transform="scale(1 1)"><g style="transform-box:fill-box;transform-origin:center;animation:pf-paddle 2.8499999999999996s ease-in-out infinite alternate;"><path d="M-4 4 Q-12 8 -12 12 Q-5 15 -2 9 L-8 9 Q-5 7 -3 6Z" fill="#87a17a" /><path d="M6 4 Q10 7 6 11 L3 12 M6 11 L6 14 M6 11 L9 13" fill="none" stroke="#87a17a" stroke-width="1.6" stroke-linecap="round" /></g></g><path d="M14 0 C15 -5 10 -8 5 -7 C-2 -8 -10 -6 -11 0 C-10 6 -2 8 5 7 C10 8 15 5 14 0Z" fill="url(#f10_2)" /><path d="M-6 0 Q-2 -4 5 -3 Q9 0 5 3 Q-2 4 -6 0Z" fill="#cbd4a0" opacity="0.6" /><circle cx="10" cy="-4" r="1.95" fill="#cbd4a0" /><circle cx="10.15" cy="-4" r="1.4" fill="#183c3e" /><circle cx="10.45" cy="-4.35" r="0.35" fill="#fff4dc" /><circle cx="10" cy="4" r="1.95" fill="#cbd4a0" /><circle cx="10.15" cy="4" r="1.4" fill="#183c3e" /><circle cx="10.45" cy="3.65" r="0.35" fill="#fff4dc" /><path d="M-7 -4 Q0 -6 6 -4" fill="none" stroke="#fff4dc" stroke-width="0.65" opacity="0.6" /><path d="M-7 4 Q0 6 6 4" fill="none" stroke="#fff4dc" stroke-width="0.65" opacity="0.6" /></svg>