<svg xmlns="http://www.w3.org/2000/svg" viewBox="-1 -1 18 12"><path d="M9.4 7 l-.8 1.3 M10.3 7.1 l0 1.3 M11.1 7 l.8 1.2" stroke="#7fae5c" stroke-width=".3"/><path d="M3.6 6.6 Q7 6 10.6 6.4" stroke="#8cc56a" stroke-width="1.1" stroke-linecap="round" fill="none"/>
      <ellipse cx="11" cy="6.3" rx="1.2" ry=".9" fill="#8cc56a"/><circle cx="12.5" cy="6.4" r=".85" fill="#9ccf78"/><circle cx="12.9" cy="6.1" r=".5" fill="#e0b43a"/>
      <path d="M13 5.8 Q16 3 19.4 2.8 M12.9 5.6 Q15 2.4 17.6 1.4" stroke="#8cb870" stroke-width=".22" fill="none"/><g fill="#eef8e8" stroke="#a8d48c" stroke-width=".3" opacity=".75"><path d="M10.8 5.8 Q10.4 .4 5 -1.6 Q7.6 2.8 11 6.2Z"/><path d="M10.4 5.9 Q6.6 1.4 1.6 1.4 Q5.6 4.4 10.6 6.3Z"/></g></svg>