<svg xmlns="http://www.w3.org/2000/svg" viewBox="-1 -1 21 18"><path d="M5.6 11.2 Q2.5 10 .6 4.5 M5.6 11.4 Q2 11.2 .2 6.2 M5.6 11.3 Q3 11.6 1 9" stroke="#9a7a4a" stroke-width=".3" fill="none"/>
      <path d="M5.4 11 Q8 12.6 11.4 11.6" stroke="#e3d49a" stroke-width="1.5" stroke-linecap="round" fill="none"/><path d="M5.4 11 Q8 12.6 11.4 11.6" stroke="#9a7a4a" stroke-width="1.5" stroke-dasharray=".45 1.1" fill="none"/>
      <path d="M13.4 11.8 Q16 11 18.6 9.6 M12.2 12 l-.6 1.8 M12.8 12.1 l.4 1.8" stroke="#8a6f45" stroke-width=".35" fill="none"/>
      <ellipse cx="12.6" cy="11.2" rx="1.6" ry="1.2" fill="#c9b077"/><circle cx="14.4" cy="11" r=".9" fill="#b39660"/><circle cx="14.7" cy="10.8" r=".45" fill="#3a2e20"/><path d="M12.4 10.8 L10.4 7.6 Q11.8 7.6 12.9 10.6Z" fill="#f4efd9" stroke="#bda878" stroke-width=".3" opacity=".85"/>
      <path d="M12.6 10.6 L9.4 .8 Q12.4 .3 14.6 2.4 Q13.8 6.4 13.3 10.6Z" fill="#f4efd9" stroke="#bda878" stroke-width=".35" opacity=".88"/>
      <path d="M12.8 10 L11 2.2 M13 10 L12.6 1.6 M13.1 9 L14 3.2" stroke="#bda878" stroke-width=".25"/></svg>