<svg xmlns="http://www.w3.org/2000/svg" viewBox="0 0 1000 46" width="1000" height="46" role="presentation"><style>@keyframes rp{0%,100%{transform:scaleX(1)}50%{transform:scaleX(1.12)}}.r{transform-box:fill-box;transform-origin:center;animation:rp 5s ease-in-out infinite}@media (prefers-reduced-motion:reduce){*{animation:none!important}}</style><path d="M40 24 q50 -6 100 0 t100 0 t100 0 t100 0" stroke="#4a8a7e" stroke-width="2" fill="none" stroke-linecap="round" opacity=".55"/><path d="M560 24 q50 -6 100 0 t100 0 t100 0 t100 0" stroke="#4a8a7e" stroke-width="2" fill="none" stroke-linecap="round" opacity=".55"/><ellipse class="r" cx="500" cy="30" rx="38" ry="8" fill="#4f8f68"/><ellipse cx="500" cy="28.6" rx="33" ry="6.4" fill="#6aa97c" opacity=".8"/><path d="M500 30 L536 26 L536 31Z" fill="#fff" opacity=".0"/><g transform="translate(500 27) scale(0.55)"><path d="M0 0 C-7 -10 -7 -26 0 -34 C7 -26 7 -10 0 0Z" transform="rotate(-64)" fill="#f3b6bf"/><path d="M0 0 C-7 -10 -7 -26 0 -34 C7 -26 7 -10 0 0Z" transform="rotate(-32)" fill="#f3b6bf"/><path d="M0 0 C-7 -10 -7 -26 0 -34 C7 -26 7 -10 0 0Z" transform="rotate(0)" fill="#f3b6bf"/><path d="M0 0 C-7 -10 -7 -26 0 -34 C7 -26 7 -10 0 0Z" transform="rotate(32)" fill="#f3b6bf"/><path d="M0 0 C-7 -10 -7 -26 0 -34 C7 -26 7 -10 0 0Z" transform="rotate(64)" fill="#f3b6bf"/><path d="M0 0 C-5 -8 -5 -19 0 -25 C5 -19 5 -8 0 0Z" transform="rotate(-40)" fill="#fbd9de"/><path d="M0 0 C-5 -8 -5 -19 0 -25 C5 -19 5 -8 0 0Z" transform="rotate(-14)" fill="#fbd9de"/><path d="M0 0 C-5 -8 -5 -19 0 -25 C5 -19 5 -8 0 0Z" transform="rotate(14)" fill="#fbd9de"/><path d="M0 0 C-5 -8 -5 -19 0 -25 C5 -19 5 -8 0 0Z" transform="rotate(40)" fill="#fbd9de"/><circle cy="-3" r="3.4" fill="#e8b04a"/></g><ellipse cx="440" cy="26" rx="6" ry="1.8" fill="none" stroke="#4a8a7e" opacity=".5"/><ellipse cx="560" cy="26" rx="6" ry="1.8" fill="none" stroke="#4a8a7e" opacity=".5"/></svg>