<svg xmlns="http://www.w3.org/2000/svg" class="td-art td-hasu" width="210" height="210" viewBox="-68 -118 136 136" aria-hidden="true" focusable="false"><defs>
    <linearGradient id="td4_skin" gradientUnits="userSpaceOnUse" x1="0" y1="-72" x2="0" y2="1"><stop offset="0" stop-color="#fff8e9"></stop><stop offset=".22" stop-color="#f6eddb"></stop><stop offset=".8" stop-color="#ead7b3"></stop><stop offset=".95" stop-color="#c9ae85"></stop><stop offset="1" stop-color="#173a3b"></stop></linearGradient>
    <radialGradient id="td4_edge" cx=".5" cy=".44" r=".62"><stop offset=".58" stop-color="#9c7448" stop-opacity="0"></stop><stop offset="1" stop-color="#9c7448" stop-opacity=".42"></stop></radialGradient>
    <linearGradient id="td4_koi" x1="0" y1="0" x2="0" y2="1"><stop offset="0" stop-color="#f6a06a"></stop><stop offset=".45" stop-color="#ec7a45"></stop><stop offset="1" stop-color="#c9563a"></stop></linearGradient>
    <linearGradient id="td4_koiS" gradientUnits="userSpaceOnUse" x1="0" y1="-35.5" x2="0" y2="-13.2"><stop offset="0" stop-color="#f6a06a"></stop><stop offset=".45" stop-color="#ec7a45"></stop><stop offset="1" stop-color="#c9563a"></stop></linearGradient>
    <radialGradient id="td4_edgeU" gradientUnits="userSpaceOnUse" cx="0" cy="-33.84" r="57.04" gradientTransform="translate(0 -33.84) scale(1 .6957) translate(0 33.84)"><stop offset=".58" stop-color="#9c7448" stop-opacity="0"></stop><stop offset="1" stop-color="#9c7448" stop-opacity=".42"></stop></radialGradient>
    <radialGradient id="td4_iris" cx=".45" cy=".42" r=".6"><stop offset="0" stop-color="#f8d98a"></stop><stop offset=".55" stop-color="#e2a63c"></stop><stop offset="1" stop-color="#a8702a"></stop></radialGradient>
    <radialGradient id="td4_throat" cx=".5" cy=".35" r=".6"><stop offset="0" stop-color="#fffbf2"></stop><stop offset="1" stop-color="#efdcbb"></stop></radialGradient>
    <radialGradient id="td4_bead" cx=".4" cy=".35" r=".65"><stop offset="0" stop-color="#c99a6a"></stop><stop offset="1" stop-color="#7a4f33"></stop></radialGradient>
    <radialGradient id="td4_jade" cx=".4" cy=".35" r=".65"><stop offset="0" stop-color="#b9e6c8"></stop><stop offset=".5" stop-color="#7fc79a"></stop><stop offset="1" stop-color="#3f8a64"></stop></radialGradient>
    <linearGradient id="td4_leaf" x1="0" y1="0" x2="0" y2="1"><stop offset="0" stop-color="#93bb86"></stop><stop offset=".6" stop-color="#6f9e7a"></stop><stop offset="1" stop-color="#4f8563"></stop></linearGradient>
    <linearGradient id="td4_under" x1="0" y1="0" x2="0" y2="1"><stop offset="0" stop-color="#d4e2b2"></stop><stop offset="1" stop-color="#a3c08a"></stop></linearGradient>
    <linearGradient id="td4_pad" x1="0" y1="0" x2="0" y2="1"><stop offset="0" stop-color="#8db58a"></stop><stop offset=".55" stop-color="#6f9e7a"></stop><stop offset="1" stop-color="#5a8d69"></stop></linearGradient>
    <clipPath id="td4_bc"><path d="M0 0 C14 .5 30 -1 36 -8 C41 -14 40.5 -22 37 -28 C41 -33 44 -40 43.6 -46 C43.2 -53 37.6 -57.6 30 -59 C20 -61 -20 -61 -30 -59 C-37.6 -57.6 -43.2 -53 -43.6 -46 C-44 -40 -41 -33 -37 -28 C-40.5 -22 -41 -14 -36 -8 C-30 -1 -14 .5 0 0Z"></path></clipPath>
    <clipPath id="td4_ar"><path d="M28.5 -34.5 C38 -34 45.6 -27.5 46.6 -18.4 C47.4 -11 44.8 -5.6 43.3 -2.4 L34.4 -2.4 C34.9 -8 34 -14 31 -19 C28.4 -23 26.4 -27.6 26.4 -31.2Z"></path></clipPath>
    <clipPath id="td4_al"><path d="M-28.5 -34.5 C-38 -34 -45.6 -27.5 -46.6 -18.4 C-47.4 -11 -44.8 -5.6 -43.3 -2.4 L-34.4 -2.4 C-34.9 -8 -34 -14 -31 -19 C-28.4 -23 -26.4 -27.6 -26.4 -31.2Z"></path></clipPath>
    <clipPath id="td4_sh"><path d="M17 -27 C19.5 -33 30 -35.5 38 -33.6 C44 -32 48 -27 48.5 -21 C48.8 -16.5 46.4 -13.2 43.6 -14 C41.4 -14.7 41.4 -18.2 39.6 -20.6 C37.4 -23.4 33.4 -23.2 30.2 -21.4 C26.4 -19.4 21.6 -19.8 18.6 -22.2 C16.6 -23.8 16.2 -25.4 17 -27Z"></path></clipPath>
    <clipPath id="td4_hl"><ellipse cx="-33" cy="-11.5" rx="18.5" ry="13" transform="rotate(-12 -33 -11.5)"></ellipse></clipPath>
  </defs>
  
  <g class="td-body"><g class="td-breathe">
    <!-- haunches and hind feet, behind the body -->
    <path d="M-41 -5 C-47 -7.5 -53 -6.5 -57.5 -3.6 C-59.6 -2.3 -59.4 .2 -57 .5 C-51 1 -45 .8 -40 .2Z" fill="#e3cfa8" stroke="#b39468" stroke-width=".5"></path>
    <path d="M41 -5 C47 -7.5 53 -6.5 57.5 -3.6 C59.6 -2.3 59.4 .2 57 .5 C51 1 45 .8 40 .2Z" fill="#e3cfa8" stroke="#b39468" stroke-width=".5"></path>
    <g fill="#f6ecd8" stroke="#b39468" stroke-width=".4"><circle cx="-58.3" cy="-1" r="1.5"></circle><circle cx="-55.4" cy="-4.7" r="1.4"></circle><circle cx="-51.2" cy="-6.6" r="1.3"></circle><circle cx="58.3" cy="-1" r="1.5"></circle><circle cx="55.4" cy="-4.7" r="1.4"></circle><circle cx="51.2" cy="-6.6" r="1.3"></circle></g>
    <ellipse cx="-33" cy="-11.5" rx="18.5" ry="13" transform="rotate(-12 -33 -11.5)" fill="url(#td4_skin)" stroke="#b39468" stroke-width=".55"></ellipse>
    <g clip-path="url(#td4_hl)"><path d="M-52 -18 C-44 -25 -31 -23 -24 -15.5 C-25.5 -7 -36 -3 -46 -4.6 C-52 -8 -54 -14 -52 -18Z" fill="url(#td4_koi)"></path></g>
    <ellipse cx="33" cy="-11.5" rx="18.5" ry="13" transform="rotate(12 33 -11.5)" fill="url(#td4_skin)" stroke="#b39468" stroke-width=".55"></ellipse>
    <!-- head and body: one heavy dumpling, the head as wide as the body -->
    <path d="M0 0 C14 .5 30 -1 36 -8 C41 -14 40.5 -22 37 -28 C41 -33 44 -40 43.6 -46 C43.2 -53 37.6 -57.6 30 -59 C20 -61 -20 -61 -30 -59 C-37.6 -57.6 -43.2 -53 -43.6 -46 C-44 -40 -41 -33 -37 -28 C-40.5 -22 -41 -14 -36 -8 C-30 -1 -14 .5 0 0Z" fill="url(#td4_skin)" stroke="#b39468" stroke-width=".6"></path>
    <g clip-path="url(#td4_bc)">
      <circle cx="0" cy="-56.6" r="7.7" fill="url(#td4_koi)"></circle>
      <path d="M17 -27 C19.5 -33 30 -35.5 38 -33.6 C44 -32 48 -27 48.5 -21 C48.8 -16.5 46.4 -13.2 43.6 -14 C41.4 -14.7 41.4 -18.2 39.6 -20.6 C37.4 -23.4 33.4 -23.2 30.2 -21.4 C26.4 -19.4 21.6 -19.8 18.6 -22.2 C16.6 -23.8 16.2 -25.4 17 -27Z" fill="url(#td4_koiS)"></path>
      <ellipse cx="0" cy="-14" rx="22" ry="15" fill="#fffaf0" opacity=".5"></ellipse>
      <rect x="-46" y="-62" width="92" height="64" fill="url(#td4_edge)"></rect>
      <ellipse cx="-14" cy="-51" rx="13" ry="3.1" fill="#ffffff" opacity=".22" transform="rotate(-8 -14 -51)"></ellipse>
      <ellipse cx="0" cy="-2.4" rx="30" ry="3.6" fill="#173a3b" opacity=".12"></ellipse>
      <ellipse cx="-6" cy="-58.5" rx="30" ry="4.4" fill="#173a3b" opacity=".08"></ellipse>
      <circle cx="-29.58" cy="-52.87" r="1.4" fill="#6b4a2f" opacity=".2"></circle><circle cx="-30" cy="-53.5" r="1.4" fill="#ffffff" opacity=".42"></circle><circle cx="-35.26" cy="-45.98" r="1.15" fill="#6b4a2f" opacity=".2"></circle><circle cx="-35.6" cy="-46.5" r="1.15" fill="#ffffff" opacity=".42"></circle><circle cx="-26.33" cy="-47.39" r="0.9" fill="#6b4a2f" opacity=".2"></circle><circle cx="-26.6" cy="-47.8" r="0.9" fill="#ffffff" opacity=".42"></circle><circle cx="30.39" cy="-53.21" r="1.3" fill="#6b4a2f" opacity=".2"></circle><circle cx="30" cy="-53.8" r="1.3" fill="#ffffff" opacity=".42"></circle><circle cx="35.33" cy="-44.91" r="1.1" fill="#6b4a2f" opacity=".2"></circle><circle cx="35" cy="-45.4" r="1.1" fill="#ffffff" opacity=".42"></circle><circle cx="26.65" cy="-47.02" r="0.85" fill="#6b4a2f" opacity=".2"></circle><circle cx="26.4" cy="-47.4" r="0.85" fill="#ffffff" opacity=".42"></circle><circle cx="-13.97" cy="-49.46" r="0.75" fill="#6b4a2f" opacity=".2"></circle><circle cx="-14.2" cy="-49.8" r="0.75" fill="#ffffff" opacity=".42"></circle><circle cx="14.84" cy="-49.24" r="0.8" fill="#6b4a2f" opacity=".2"></circle><circle cx="14.6" cy="-49.6" r="0.8" fill="#ffffff" opacity=".42"></circle><circle cx="-32.61" cy="-21.91" r="1.3" fill="#6b4a2f" opacity=".2"></circle><circle cx="-33" cy="-22.5" r="1.3" fill="#ffffff" opacity=".42"></circle><circle cx="-27.7" cy="-14.55" r="1" fill="#6b4a2f" opacity=".2"></circle><circle cx="-28" cy="-15" r="1" fill="#ffffff" opacity=".42"></circle><circle cx="-36.16" cy="-11.98" r="1.15" fill="#6b4a2f" opacity=".2"></circle><circle cx="-36.5" cy="-12.5" r="1.15" fill="#ffffff" opacity=".42"></circle><circle cx="27.53" cy="-17.11" r="1.1" fill="#6b4a2f" opacity=".2"></circle><circle cx="27.2" cy="-17.6" r="1.1" fill="#ffffff" opacity=".42"></circle><circle cx="24.87" cy="-8.6" r="0.9" fill="#6b4a2f" opacity=".2"></circle><circle cx="24.6" cy="-9" r="0.9" fill="#ffffff" opacity=".42"></circle><circle cx="-21.26" cy="-6.14" r="0.8" fill="#6b4a2f" opacity=".2"></circle><circle cx="-21.5" cy="-6.5" r="0.8" fill="#ffffff" opacity=".42"></circle><circle cx="19.84" cy="-5.24" r="0.8" fill="#6b4a2f" opacity=".2"></circle><circle cx="19.6" cy="-5.6" r="0.8" fill="#ffffff" opacity=".42"></circle><circle cx="-6.32" cy="-24.73" r="0.6" fill="#6b4a2f" opacity=".2"></circle><circle cx="-6.5" cy="-25" r="0.6" fill="#ffffff" opacity=".42"></circle><circle cx="7.58" cy="-24.33" r="0.6" fill="#6b4a2f" opacity=".2"></circle><circle cx="7.4" cy="-24.6" r="0.6" fill="#ffffff" opacity=".42"></circle>
    </g>
    <!-- parotoid glands: the big bumps behind a toad's eyes (frogs don't have them) -->
    <path d="M30 -59 C36.6 -61.8 44.6 -58.8 45.6 -52.6 C46.4 -48.6 45.4 -46.2 43.6 -45.2 C40 -48 35 -53 30 -59Z M-30 -59 C-36.6 -61.8 -44.6 -58.8 -45.6 -52.6 C-46.4 -48.6 -45.4 -46.2 -43.6 -45.2 C-40 -48 -35 -53 -30 -59Z" fill="url(#td4_skin)"></path>
    <path d="M30 -59 C36.6 -61.8 44.6 -58.8 45.6 -52.6 C46.4 -48.6 45.4 -46.2 43.6 -45.2 M-30 -59 C-36.6 -61.8 -44.6 -58.8 -45.6 -52.6 C-46.4 -48.6 -45.4 -46.2 -43.6 -45.2" fill="none" stroke="#b39468" stroke-width=".55"></path>
    <g fill="#9c7448" opacity=".36"><circle cx="-40.6" cy="-55" r=".65"></circle><circle cx="-43" cy="-51" r=".55"></circle><circle cx="-39.4" cy="-51.4" r=".5"></circle><circle cx="40.6" cy="-55" r=".65"></circle><circle cx="43" cy="-51" r=".55"></circle><circle cx="39.4" cy="-51.4" r=".5"></circle></g>
    <circle cx="-21" cy="-58.4" r="10" fill="url(#td4_skin)"></circle>
    <circle cx="-21" cy="-57.7" r="7.4" fill="url(#td4_iris)"></circle>
    <circle cx="-21" cy="-57.7" r="7.4" fill="none" stroke="#7a5326" stroke-width=".5" opacity=".7"></circle>
    <g transform="translate(-21 -57.2)"><g class="td-gaze">
      <ellipse cx="0" cy="0" rx="4.6" ry="2.1" fill="#1f2e2c"></ellipse>
      <circle cx="2.1" cy=".35" r="1.2" fill="#ffffff" opacity=".9"></circle>
      <circle cx="-2.5" cy="1.9" r=".5" fill="#ffffff" opacity=".55"></circle>
    </g></g>
    <g transform="translate(-21 -68.6)"><g class="td-look"><g class="td-blink"><g transform="translate(21 68.6)">
      <path d="M-31.25 -58.7 A10.25 10.25 0 0 1 -10.75 -59.3 C-15 -57.9 -27 -57.7 -31.25 -58.7Z" fill="url(#td4_skin)"></path>
      <path d="M-28.4 -62 C-24 -61 -18 -61 -13.6 -62" fill="none" stroke="#fff8e9" stroke-width=".75" stroke-linecap="round" opacity=".6"></path>
      <path d="M-30.7 -58.4 C-27 -57.65 -15 -57.65 -11.3 -58.95" fill="none" stroke="#4a3428" stroke-width="1.4" stroke-linecap="round"></path>
    </g></g></g></g>
    <path d="M-11.01 -58.75 A10 10 0 0 0 -30.99 -58.75" fill="none" stroke="#b39468" stroke-width=".6" stroke-linecap="round"></path>
    <path d="M-12.56 -63.27 A9.75 9.75 0 0 0 -29.44 -63.27" fill="none" stroke="#b18f62" stroke-width="1.3" stroke-linecap="round" opacity=".85"></path>
    <path d="M-15.15 -65.89 A9.5 9.5 0 0 0 -26.85 -65.89" fill="none" stroke="#a5835a" stroke-width="1.6" stroke-linecap="round" opacity=".6"></path>
    <path d="M-14.28 -63.1 A8.2 8.2 0 0 0 -25.7 -65.12" fill="none" stroke="#fffaf0" stroke-width=".8" stroke-linecap="round" opacity=".7"></path>
    <path d="M-11.6 -54.98 A10 10 0 0 1 -30.4 -54.98" fill="none" stroke="#9c7448" stroke-width=".6" stroke-linecap="round" opacity=".25"></path>
    <path d="M-31.7 -57 q-2 .3 -3.3 1.4" fill="none" stroke="#9c7448" stroke-width=".55" stroke-linecap="round" opacity=".38"></path>
    <circle cx="21" cy="-58.4" r="10" fill="url(#td4_skin)"></circle>
    <circle cx="21" cy="-57.7" r="7.4" fill="url(#td4_iris)"></circle>
    <circle cx="21" cy="-57.7" r="7.4" fill="none" stroke="#7a5326" stroke-width=".5" opacity=".7"></circle>
    <g transform="translate(21 -57.2)"><g class="td-gaze">
      <ellipse cx="0" cy="0" rx="4.6" ry="2.1" fill="#1f2e2c"></ellipse>
      <circle cx="2.1" cy=".35" r="1.2" fill="#ffffff" opacity=".9"></circle>
      <circle cx="-2.5" cy="1.9" r=".5" fill="#ffffff" opacity=".55"></circle>
    </g></g>
    <g transform="translate(21 -68.6)"><g class="td-look"><g class="td-blink"><g transform="translate(-21 68.6)">
      <path d="M10.75 -59.3 A10.25 10.25 0 0 1 31.25 -58.7 C27 -57.7 15 -57.9 10.75 -59.3Z" fill="url(#td4_skin)"></path>
      <path d="M13.6 -62 C18 -61 24 -61 28.4 -62" fill="none" stroke="#fff8e9" stroke-width=".75" stroke-linecap="round" opacity=".6"></path>
      <path d="M11.3 -58.95 C15 -57.65 27 -57.65 30.7 -58.4" fill="none" stroke="#4a3428" stroke-width="1.4" stroke-linecap="round"></path>
    </g></g></g></g>
    <path d="M11.01 -58.75 A10 10 0 0 1 30.99 -58.75" fill="none" stroke="#b39468" stroke-width=".6" stroke-linecap="round"></path>
    <path d="M12.56 -63.27 A9.75 9.75 0 0 1 29.44 -63.27" fill="none" stroke="#b18f62" stroke-width="1.3" stroke-linecap="round" opacity=".85"></path>
    <path d="M15.15 -65.89 A9.5 9.5 0 0 1 26.85 -65.89" fill="none" stroke="#a5835a" stroke-width="1.6" stroke-linecap="round" opacity=".6"></path>
    <path d="M14.28 -63.1 A8.2 8.2 0 0 1 25.7 -65.12" fill="none" stroke="#fffaf0" stroke-width=".8" stroke-linecap="round" opacity=".7"></path>
    <path d="M11.6 -54.98 A10 10 0 0 0 30.4 -54.98" fill="none" stroke="#9c7448" stroke-width=".6" stroke-linecap="round" opacity=".25"></path>
    <path d="M31.7 -57 q2 .3 3.3 1.4" fill="none" stroke="#9c7448" stroke-width=".55" stroke-linecap="round" opacity=".38"></path>
    <!-- nostrils and the long lipless mouth -->
    <ellipse cx="-5.4" cy="-45.4" rx="1.15" ry=".75" fill="#3a2a22" opacity=".55"></ellipse><ellipse cx="5.4" cy="-45.4" rx="1.15" ry=".75" fill="#3a2a22" opacity=".55"></ellipse>
    <path d="M-35 -38.6 C-24 -36.6 -11 -36.2 0 -36.5 C11 -36.2 24 -36.6 35 -38.6" fill="none" stroke="#fff8e9" stroke-width=".85" stroke-linecap="round" opacity=".55" transform="translate(0 -1.35)"></path>
    <path d="M-35 -38.6 C-24 -36.6 -11 -36.2 0 -36.5 C11 -36.2 24 -36.6 35 -38.6" fill="none" stroke="#3a2a22" stroke-width="1.45" stroke-linecap="round" opacity=".8"></path>
    <path d="M-35 -38.6 C-36.6 -38.3 -37.3 -37.1 -36.9 -35.8 M35 -38.6 C36.6 -38.3 37.3 -37.1 36.9 -35.8" fill="none" stroke="#3a2a22" stroke-width="1.2" stroke-linecap="round" opacity=".7"></path>
    <!-- lotus-seed beads, a jade bead and a koi-orange tassel -->
    <path d="M-29 -26.5 Q-1.45 -5.13 26.1 -24.36" fill="none" stroke="#5e4636" stroke-width=".6" opacity=".8"></path>
    <circle cx="-24.94" cy="-23.57" r="2.2" fill="url(#td4_bead)" stroke="#5e4636" stroke-width=".35"></circle><circle cx="-25.64" cy="-24.32" r=".65" fill="#f3d9a8" opacity=".75"></circle><circle cx="-20.3" cy="-20.76" r="2.2" fill="url(#td4_bead)" stroke="#5e4636" stroke-width=".35"></circle><circle cx="-21" cy="-21.51" r=".65" fill="#f3d9a8" opacity=".75"></circle><circle cx="-15.66" cy="-18.53" r="2.2" fill="url(#td4_bead)" stroke="#5e4636" stroke-width=".35"></circle><circle cx="-16.36" cy="-19.28" r=".65" fill="#f3d9a8" opacity=".75"></circle><circle cx="-11.02" cy="-16.87" r="2.2" fill="url(#td4_bead)" stroke="#5e4636" stroke-width=".35"></circle><circle cx="-11.72" cy="-17.62" r=".65" fill="#f3d9a8" opacity=".75"></circle><circle cx="-6.38" cy="-15.79" r="2.2" fill="url(#td4_bead)" stroke="#5e4636" stroke-width=".35"></circle><circle cx="-7.08" cy="-16.54" r=".65" fill="#f3d9a8" opacity=".75"></circle><circle cx="6.38" cy="-15.79" r="2.2" fill="url(#td4_bead)" stroke="#5e4636" stroke-width=".35"></circle><circle cx="5.68" cy="-16.54" r=".65" fill="#f3d9a8" opacity=".75"></circle><circle cx="11.02" cy="-16.87" r="2.2" fill="url(#td4_bead)" stroke="#5e4636" stroke-width=".35"></circle><circle cx="10.32" cy="-17.62" r=".65" fill="#f3d9a8" opacity=".75"></circle><circle cx="15.66" cy="-18.53" r="2.2" fill="url(#td4_bead)" stroke="#5e4636" stroke-width=".35"></circle><circle cx="14.96" cy="-19.28" r=".65" fill="#f3d9a8" opacity=".75"></circle><circle cx="20.3" cy="-20.76" r="2.2" fill="url(#td4_bead)" stroke="#5e4636" stroke-width=".35"></circle><circle cx="19.6" cy="-21.51" r=".65" fill="#f3d9a8" opacity=".75"></circle><circle cx="24.94" cy="-23.57" r="2.2" fill="url(#td4_bead)" stroke="#5e4636" stroke-width=".35"></circle><circle cx="24.24" cy="-24.32" r=".65" fill="#f3d9a8" opacity=".75"></circle>
    <path d="M-1.1 -11 L-1.8 -5.4 M0 -11 L0 -4.8 M1.1 -11 L1.8 -5.4" stroke="#ec7a45" stroke-width=".9" stroke-linecap="round"></path>
    <circle cx="0" cy="-13.4" r="3.2" fill="url(#td4_jade)" stroke="#2f6a4c" stroke-width=".4"></circle>
    <circle cx="-1" cy="-14.5" r=".9" fill="#ffffff" opacity=".7"></circle>
    <!-- the throat pouch -->
    <g transform="translate(0 -35.2)"><g class="td-throat"><g transform="translate(0 35.2)">
      <ellipse cx="0" cy="-29" rx="15.6" ry="6.3" fill="url(#td4_throat)"></ellipse>
      <ellipse cx="-4.4" cy="-30.8" rx="5" ry="1.4" fill="#ffffff" opacity=".4"></ellipse>
    </g></g></g>
    <!-- the planted arm (viewer's right). Its top is painted exactly like the
         body under it (same skin, same shoulder patch, same edge shade), so the
         shoulder melts in. The outline picks up the body's contour right where
         the arm crosses it (39.1,-30.96) and runs on down: one line, no gap.
         koiS and edgeU are user-space twins of the body's paint, so a thin
         stroke of them can cover the hidden top edge, where two anti-aliased
         layers would otherwise leave a faint light hairline -->
    <path d="M28.5 -34.5 C38 -34 45.6 -27.5 46.6 -18.4 C47.4 -11 44.8 -5.6 43.3 -2.4 L34.4 -2.4 C34.9 -8 34 -14 31 -19 C28.4 -23 26.4 -27.6 26.4 -31.2Z" fill="url(#td4_skin)"></path>
    <g clip-path="url(#td4_ar)">
      <path d="M17 -27 C19.5 -33 30 -35.5 38 -33.6 C44 -32 48 -27 48.5 -21 C48.8 -16.5 46.4 -13.2 43.6 -14 C41.4 -14.7 41.4 -18.2 39.6 -20.6 C37.4 -23.4 33.4 -23.2 30.2 -21.4 C26.4 -19.4 21.6 -19.8 18.6 -22.2 C16.6 -23.8 16.2 -25.4 17 -27Z" fill="url(#td4_koiS)"></path>
      <rect x="-70" y="-62" width="140" height="70" fill="url(#td4_edgeU)"></rect>
      <circle cx="40.9" cy="-22.05" r="1" fill="#6b4a2f" opacity=".2"></circle><circle cx="40.6" cy="-22.5" r="1" fill="#ffffff" opacity=".42"></circle><circle cx="44.27" cy="-11.2" r="0.9" fill="#6b4a2f" opacity=".2"></circle><circle cx="44" cy="-11.6" r="0.9" fill="#ffffff" opacity=".42"></circle><circle cx="38.64" cy="-8.84" r="0.8" fill="#6b4a2f" opacity=".2"></circle><circle cx="38.4" cy="-9.2" r="0.8" fill="#ffffff" opacity=".42"></circle>
    </g>
    <g clip-path="url(#td4_sh)" fill="none" stroke-width="1.1">
      <path d="M31 -19 C28.4 -23 26.4 -27.6 26.4 -31.2 L28.5 -34.5 C32.48 -34.29 36.13 -33.03 39.1 -30.96" stroke="url(#td4_koiS)"></path>
      <path d="M31 -19 C28.4 -23 26.4 -27.6 26.4 -31.2 L28.5 -34.5 C32.48 -34.29 36.13 -33.03 39.1 -30.96" stroke="url(#td4_edgeU)"></path>
    </g>
    <path d="M39.1 -30.96 C43.21 -28.1 46.02 -23.69 46.6 -18.4 C47.4 -11 44.8 -5.6 43.3 -2.4 M34.4 -2.4 C34.9 -8 34 -14 31 -19" fill="none" stroke="#b39468" stroke-width=".55" stroke-linecap="round"></path>
    <path d="M31 -19 C30 -20.8 29.2 -22.4 28.6 -24" fill="none" stroke="#b39468" stroke-width=".45" stroke-linecap="round" opacity=".55"></path>
    <ellipse cx="39" cy="-1.9" rx="6.4" ry="2.9" fill="#e9d6b2" stroke="#b39468" stroke-width=".5"></ellipse>
    <g stroke-linecap="round"><path d="M38.6 -2 L29.6 .5 M38.8 -1.8 L34.6 1.7 M39.4 -1.8 L42.6 1.8 M39.8 -2 L48.4 .4" stroke="#b39468" stroke-width="4.1"></path><path d="M38.6 -2 L29.6 .5 M38.8 -1.8 L34.6 1.7 M39.4 -1.8 L42.6 1.8 M39.8 -2 L48.4 .4" stroke="#ecdcbc" stroke-width="3.2"></path></g>
    <g fill="#f8efdc" stroke="#b39468" stroke-width=".4"><circle cx="29.4" cy=".6" r="1.9"></circle><circle cx="34.5" cy="1.8" r="1.9"></circle><circle cx="42.7" cy="1.9" r="1.9"></circle><circle cx="48.6" cy=".5" r="1.9"></circle></g>
    <!-- the other arm (viewer's left), planted too: its fist holds the stalk -->
    <path d="M-28.5 -34.5 C-38 -34 -45.6 -27.5 -46.6 -18.4 C-47.4 -11 -44.8 -5.6 -43.3 -2.4 L-34.4 -2.4 C-34.9 -8 -34 -14 -31 -19 C-28.4 -23 -26.4 -27.6 -26.4 -31.2Z" fill="url(#td4_skin)"></path>
    <path d="M-36.6 -33.6 C-42.6 -31 -46.2 -25.4 -46.6 -18.4 C-47.4 -11 -44.8 -5.6 -43.3 -2.4 M-34.4 -2.4 C-34.9 -8 -34 -14 -31 -19 C-30 -20.8 -29.2 -22.4 -28.6 -24" fill="none" stroke="#b39468" stroke-width=".55" stroke-linecap="round"></path>
    <g clip-path="url(#td4_al)"><path d="M-47 -20 C-47 -10 -45 -5 -43.4 -2.4 L-40 -2.4 C-42 -8 -43 -14 -42.4 -20Z" fill="#9c7448" opacity=".12"></path>
      <circle cx="-40.3" cy="-22.05" r="1" fill="#6b4a2f" opacity=".2"></circle><circle cx="-40.6" cy="-22.5" r="1" fill="#ffffff" opacity=".42"></circle><circle cx="-43.73" cy="-15" r="0.9" fill="#6b4a2f" opacity=".2"></circle><circle cx="-44" cy="-15.4" r="0.9" fill="#ffffff" opacity=".42"></circle><circle cx="-36.36" cy="-28.24" r="0.8" fill="#6b4a2f" opacity=".2"></circle><circle cx="-36.6" cy="-28.6" r="0.8" fill="#ffffff" opacity=".42"></circle></g>
    <ellipse cx="-39.2" cy="-2.1" rx="6.6" ry="3" fill="#e9d6b2" stroke="#b39468" stroke-width=".5"></ellipse>
  </g>
  <!-- the parasol: a lotus leaf on its own curving stalk, swaying from her grip -->
  <g transform="translate(-38.8 -4.5)"><g class="td-sway"><g transform="translate(38.8 4.5)">
    <path d="M-38.8 -1.8 C-40.6 -16 -46 -30 -48.6 -46 C-50.6 -60 -46.6 -76 -30 -85 C-24 -88 -17.5 -89 -11.5 -89" fill="none" stroke="#3f6f55" stroke-width="3.4" stroke-linecap="round"></path>
    <path d="M-38.8 -1.8 C-40.6 -16 -46 -30 -48.6 -46 C-50.6 -60 -46.6 -76 -30 -85 C-24 -88 -17.5 -89 -11.5 -89" fill="none" stroke="#7fa878" stroke-width="2.3" stroke-linecap="round"></path>
    <path d="M-38.8 -1.8 C-40.6 -16 -46 -30 -48.6 -46 C-50.6 -60 -46.6 -76 -30 -85 C-24 -88 -17.5 -89 -11.5 -89" fill="none" stroke="#b9d29f" stroke-width=".7" stroke-linecap="round" opacity=".7" transform="translate(-.6 0)"></path>
    <path d="M-40.4 -13 l-1.3 -.8 M-43.8 -25 l1.3 -.8 M-47.2 -37 l-1.3 -.8 M-49.7 -54 l1.3 -.8 M-48.6 -68 l-1.3 -.8 M-41.6 -80 l1.3 -.8 M-32 -84.4 l-1.3 -.8" stroke="#3f6f55" stroke-width=".55" stroke-linecap="round"></path>
    <g transform="translate(-11 -88.6) rotate(-7) scale(.92)">
      <path d="M-54 1 C-38 -4 38 -5 54 0 C51 2.6 46 3.6 40 3.4 C34 5.4 27 5.2 20 4.6 C13 6.2 5 6.2 -2 5.6 C-9 6.6 -18 6.2 -24 4.8 C-31 5.8 -39 5 -44 3.6 C-50 3.8 -53 2.8 -54 1Z" fill="url(#td4_under)"></path>
      <path d="M-1 -1.4 L-44 3.4 M-1 -1.4 L-30 4.9 M-1 -1.4 L-16 5.5 M-1 -1.4 L-2 5.4 M-1 -1.4 L12 5.5 M-1 -1.4 L26 4.9 M-1 -1.4 L40 3.5" stroke="#89a874" stroke-width=".55" opacity=".75"></path>
      <path d="M-54 1 C-50 -9 -33 -17.6 -4 -18.4 C26 -18.4 48 -12 54 0 C38 -5 -38 -4 -54 1Z" fill="url(#td4_leaf)" stroke="#4f8563" stroke-width=".7"></path>
      <path d="M-4 -17 Q-25.6 -13.11 -52 -1.6 M-4 -17 Q-19.3 -13.81 -38 -3.6 M-4 -17 Q-12.1 -14.23 -22 -4.8 M-4 -17 Q-4.9 -14.34 -6 -5.1 M-4 -17 Q2.3 -14.3 10 -5 M-4 -17 Q9.5 -14.09 26 -4.4 M-4 -17 Q16.7 -13.53 42 -2.8 M-4 -17 Q21.2 -12.83 52 -0.8" fill="none" stroke="#acc99a" stroke-width=".55" opacity=".6"></path>
      <ellipse cx="-4" cy="-17.1" rx="3.3" ry="1.1" fill="#c3d9a9" opacity=".85"></ellipse>
      <ellipse cx="-22" cy="-11" rx="16" ry="3.2" fill="#e3efe2" opacity=".26" transform="rotate(-9 -22 -11)"></ellipse>
      <path d="M-54 1 C51 2.6 46 3.6 40 3.4 C34 5.4 27 5.2 20 4.6 C13 6.2 5 6.2 -2 5.6 C-9 6.6 -18 6.2 -24 4.8 C-31 5.8 -39 5 -44 3.6 C-50 3.8 -53 2.8 -54 1Z" fill="none" stroke="#5f8a5a" stroke-width=".55"></path>
      <ellipse cx="16.4" cy="-10.9" rx="1.7" ry=".5" fill="#3f6f55" opacity=".35"></ellipse>
      <circle cx="16" cy="-12.5" r="1.9" fill="#e8f4f0" opacity=".92"></circle>
      <g transform="translate(15.3 -13.2)"><g class="td-glint"><circle cx="0" cy="0" r=".7" fill="#ffffff"></circle></g></g>
    </g>
  </g></g></g>
  <!-- her fingers round the stalk, over it -->
  <g class="td-grip">
    <path d="M-45.6 -6.4 C-46 -2.6 -45 .2 -42.2 .9 L-36.4 .9 C-33.8 .5 -33 -2 -33.2 -4.6 C-33.4 -7.6 -35 -9.4 -37.8 -9.6 C-41.4 -9.9 -45.2 -9.4 -45.6 -6.4Z" fill="#ecdcbc" stroke="#b39468" stroke-width=".55"></path>
    <path d="M-33.6 -6.2 C-35.2 -6.6 -36.6 -6.4 -37.6 -5.6 M-33.4 -2.8 C-35 -3.3 -36.4 -3.1 -37.4 -2.3" fill="none" stroke="#b39468" stroke-width=".55" stroke-linecap="round"></path>
    <ellipse cx="-41" cy="-7.6" rx="3.2" ry="1.1" fill="#fffaf0" opacity=".55"></ellipse>
    <circle cx="-48.2" cy=".4" r="1.8" fill="#f8efdc" stroke="#b39468" stroke-width=".4"></circle>
  </g>
  </g></svg>